<mxfile host="app.diagrams.net" modified="2023-12-28T23:55:40.870Z" agent="Mozilla/5.0 (Windows NT 10.0; Win64; x64) AppleWebKit/537.36 (KHTML, like Gecko) Chrome/120.0.0.0 Safari/537.36" etag="hwCw25sdWVj-lG4ueEPD" version="22.1.15" type="device">
  <diagram name="Trang-1" id="Jx5FHGbSv20RP-j9FyMX">
    <mxGraphModel dx="2284" dy="746" grid="1" gridSize="10" guides="1" tooltips="1" connect="1" arrows="1" fold="1" page="1" pageScale="1" pageWidth="850" pageHeight="1100" math="0" shadow="0">
      <root>
        <mxCell id="0" />
        <mxCell id="1" parent="0" />
        <mxCell id="V8NqZizXuEBdgUwYtA9P-5" value="Passenger" style="swimlane;fontStyle=1;align=center;verticalAlign=top;childLayout=stackLayout;horizontal=1;startSize=26;horizontalStack=0;resizeParent=1;resizeParentMax=0;resizeLast=0;collapsible=1;marginBottom=0;whiteSpace=wrap;html=1;" vertex="1" parent="1">
          <mxGeometry x="90" y="110" width="230" height="214" as="geometry" />
        </mxCell>
        <mxCell id="V8NqZizXuEBdgUwYtA9P-6" value="&amp;nbsp;" style="text;strokeColor=none;fillColor=none;align=left;verticalAlign=top;spacingLeft=4;spacingRight=4;overflow=hidden;rotatable=0;points=[[0,0.5],[1,0.5]];portConstraint=eastwest;whiteSpace=wrap;html=1;" vertex="1" parent="V8NqZizXuEBdgUwYtA9P-5">
          <mxGeometry y="26" width="230" height="26" as="geometry" />
        </mxCell>
        <mxCell id="V8NqZizXuEBdgUwYtA9P-7" value="" style="line;strokeWidth=1;fillColor=none;align=left;verticalAlign=middle;spacingTop=-1;spacingLeft=3;spacingRight=3;rotatable=0;labelPosition=right;points=[];portConstraint=eastwest;strokeColor=inherit;" vertex="1" parent="V8NqZizXuEBdgUwYtA9P-5">
          <mxGeometry y="52" width="230" height="8" as="geometry" />
        </mxCell>
        <mxCell id="V8NqZizXuEBdgUwYtA9P-28" value="+ getMaximumLuggageWeight ()" style="text;strokeColor=none;fillColor=none;align=left;verticalAlign=top;spacingLeft=4;spacingRight=4;overflow=hidden;rotatable=0;points=[[0,0.5],[1,0.5]];portConstraint=eastwest;whiteSpace=wrap;html=1;" vertex="1" parent="V8NqZizXuEBdgUwYtA9P-5">
          <mxGeometry y="60" width="230" height="34" as="geometry" />
        </mxCell>
        <mxCell id="V8NqZizXuEBdgUwYtA9P-29" value="&amp;nbsp;+ getPassengers ()&amp;nbsp;" style="text;html=1;align=left;verticalAlign=middle;resizable=0;points=[];autosize=1;strokeColor=none;fillColor=none;" vertex="1" parent="V8NqZizXuEBdgUwYtA9P-5">
          <mxGeometry y="94" width="230" height="30" as="geometry" />
        </mxCell>
        <mxCell id="V8NqZizXuEBdgUwYtA9P-40" value="+ AddPassenger(Passenger)" style="text;html=1;align=left;verticalAlign=middle;resizable=0;points=[];autosize=1;strokeColor=none;fillColor=none;" vertex="1" parent="V8NqZizXuEBdgUwYtA9P-5">
          <mxGeometry y="124" width="230" height="30" as="geometry" />
        </mxCell>
        <mxCell id="V8NqZizXuEBdgUwYtA9P-41" value="+ RemovePassenger(Passenger)" style="text;html=1;align=left;verticalAlign=middle;resizable=0;points=[];autosize=1;strokeColor=none;fillColor=none;" vertex="1" parent="V8NqZizXuEBdgUwYtA9P-5">
          <mxGeometry y="154" width="230" height="30" as="geometry" />
        </mxCell>
        <mxCell id="V8NqZizXuEBdgUwYtA9P-49" value="+ GetLunggageWeight(int)" style="text;html=1;align=left;verticalAlign=middle;resizable=0;points=[];autosize=1;strokeColor=none;fillColor=none;" vertex="1" parent="V8NqZizXuEBdgUwYtA9P-5">
          <mxGeometry y="184" width="230" height="30" as="geometry" />
        </mxCell>
        <mxCell id="V8NqZizXuEBdgUwYtA9P-9" value="RegularPassenger" style="swimlane;fontStyle=1;align=center;verticalAlign=top;childLayout=stackLayout;horizontal=1;startSize=26;horizontalStack=0;resizeParent=1;resizeParentMax=0;resizeLast=0;collapsible=1;marginBottom=0;whiteSpace=wrap;html=1;" vertex="1" parent="1">
          <mxGeometry x="550" y="390" width="250" height="206" as="geometry" />
        </mxCell>
        <mxCell id="V8NqZizXuEBdgUwYtA9P-10" value="&amp;nbsp;" style="text;strokeColor=none;fillColor=none;align=left;verticalAlign=top;spacingLeft=4;spacingRight=4;overflow=hidden;rotatable=0;points=[[0,0.5],[1,0.5]];portConstraint=eastwest;whiteSpace=wrap;html=1;" vertex="1" parent="V8NqZizXuEBdgUwYtA9P-9">
          <mxGeometry y="26" width="250" height="26" as="geometry" />
        </mxCell>
        <mxCell id="V8NqZizXuEBdgUwYtA9P-11" value="" style="line;strokeWidth=1;fillColor=none;align=left;verticalAlign=middle;spacingTop=-1;spacingLeft=3;spacingRight=3;rotatable=0;labelPosition=right;points=[];portConstraint=eastwest;strokeColor=inherit;" vertex="1" parent="V8NqZizXuEBdgUwYtA9P-9">
          <mxGeometry y="52" width="250" height="8" as="geometry" />
        </mxCell>
        <mxCell id="V8NqZizXuEBdgUwYtA9P-30" value="+ getMaximumLuggageWeight()" style="text;strokeColor=none;fillColor=none;align=left;verticalAlign=top;spacingLeft=4;spacingRight=4;overflow=hidden;rotatable=0;points=[[0,0.5],[1,0.5]];portConstraint=eastwest;whiteSpace=wrap;html=1;" vertex="1" parent="V8NqZizXuEBdgUwYtA9P-9">
          <mxGeometry y="60" width="250" height="26" as="geometry" />
        </mxCell>
        <mxCell id="V8NqZizXuEBdgUwYtA9P-31" value="&amp;nbsp;+ getPassengers()&amp;nbsp;" style="text;html=1;align=left;verticalAlign=middle;resizable=0;points=[];autosize=1;strokeColor=none;fillColor=none;" vertex="1" parent="V8NqZizXuEBdgUwYtA9P-9">
          <mxGeometry y="86" width="250" height="30" as="geometry" />
        </mxCell>
        <mxCell id="V8NqZizXuEBdgUwYtA9P-50" value="+ AddPassenger(Passenger)" style="text;html=1;align=left;verticalAlign=middle;resizable=0;points=[];autosize=1;strokeColor=none;fillColor=none;" vertex="1" parent="V8NqZizXuEBdgUwYtA9P-9">
          <mxGeometry y="116" width="250" height="30" as="geometry" />
        </mxCell>
        <mxCell id="V8NqZizXuEBdgUwYtA9P-51" value="+ RemovePassenger(Passenger)" style="text;html=1;align=left;verticalAlign=middle;resizable=0;points=[];autosize=1;strokeColor=none;fillColor=none;" vertex="1" parent="V8NqZizXuEBdgUwYtA9P-9">
          <mxGeometry y="146" width="250" height="30" as="geometry" />
        </mxCell>
        <mxCell id="V8NqZizXuEBdgUwYtA9P-52" value="+ GetLunggageWeight(int)" style="text;html=1;align=left;verticalAlign=middle;resizable=0;points=[];autosize=1;strokeColor=none;fillColor=none;" vertex="1" parent="V8NqZizXuEBdgUwYtA9P-9">
          <mxGeometry y="176" width="250" height="30" as="geometry" />
        </mxCell>
        <mxCell id="V8NqZizXuEBdgUwYtA9P-13" value="FistClass" style="swimlane;fontStyle=1;align=center;verticalAlign=top;childLayout=stackLayout;horizontal=1;startSize=26;horizontalStack=0;resizeParent=1;resizeParentMax=0;resizeLast=0;collapsible=1;marginBottom=0;whiteSpace=wrap;html=1;" vertex="1" parent="1">
          <mxGeometry x="-160" y="570" width="200" height="120" as="geometry" />
        </mxCell>
        <mxCell id="V8NqZizXuEBdgUwYtA9P-46" value="&amp;nbsp;" style="text;html=1;align=center;verticalAlign=middle;resizable=0;points=[];autosize=1;strokeColor=none;fillColor=none;" vertex="1" parent="V8NqZizXuEBdgUwYtA9P-13">
          <mxGeometry y="26" width="200" height="30" as="geometry" />
        </mxCell>
        <mxCell id="V8NqZizXuEBdgUwYtA9P-15" value="" style="line;strokeWidth=1;fillColor=none;align=left;verticalAlign=middle;spacingTop=-1;spacingLeft=3;spacingRight=3;rotatable=0;labelPosition=right;points=[];portConstraint=eastwest;strokeColor=inherit;" vertex="1" parent="V8NqZizXuEBdgUwYtA9P-13">
          <mxGeometry y="56" width="200" height="8" as="geometry" />
        </mxCell>
        <mxCell id="V8NqZizXuEBdgUwYtA9P-14" value="+ getMaximumLuggageWeight()" style="text;strokeColor=none;fillColor=none;align=left;verticalAlign=top;spacingLeft=4;spacingRight=4;overflow=hidden;rotatable=0;points=[[0,0.5],[1,0.5]];portConstraint=eastwest;whiteSpace=wrap;html=1;" vertex="1" parent="V8NqZizXuEBdgUwYtA9P-13">
          <mxGeometry y="64" width="200" height="26" as="geometry" />
        </mxCell>
        <mxCell id="V8NqZizXuEBdgUwYtA9P-27" value="&amp;nbsp;+ getPassengers()&amp;nbsp;" style="text;html=1;align=left;verticalAlign=middle;resizable=0;points=[];autosize=1;strokeColor=none;fillColor=none;" vertex="1" parent="V8NqZizXuEBdgUwYtA9P-13">
          <mxGeometry y="90" width="200" height="30" as="geometry" />
        </mxCell>
        <mxCell id="V8NqZizXuEBdgUwYtA9P-17" value="BusinessClass" style="swimlane;fontStyle=1;align=center;verticalAlign=top;childLayout=stackLayout;horizontal=1;startSize=26;horizontalStack=0;resizeParent=1;resizeParentMax=0;resizeLast=0;collapsible=1;marginBottom=0;whiteSpace=wrap;html=1;" vertex="1" parent="1">
          <mxGeometry x="70" y="570" width="190" height="120" as="geometry" />
        </mxCell>
        <mxCell id="V8NqZizXuEBdgUwYtA9P-47" value="&amp;nbsp;" style="text;html=1;align=center;verticalAlign=middle;resizable=0;points=[];autosize=1;strokeColor=none;fillColor=none;" vertex="1" parent="V8NqZizXuEBdgUwYtA9P-17">
          <mxGeometry y="26" width="190" height="30" as="geometry" />
        </mxCell>
        <mxCell id="V8NqZizXuEBdgUwYtA9P-19" value="" style="line;strokeWidth=1;fillColor=none;align=left;verticalAlign=middle;spacingTop=-1;spacingLeft=3;spacingRight=3;rotatable=0;labelPosition=right;points=[];portConstraint=eastwest;strokeColor=inherit;" vertex="1" parent="V8NqZizXuEBdgUwYtA9P-17">
          <mxGeometry y="56" width="190" height="8" as="geometry" />
        </mxCell>
        <mxCell id="V8NqZizXuEBdgUwYtA9P-25" value="&amp;nbsp;+ getPassengers()&amp;nbsp;" style="text;html=1;align=left;verticalAlign=middle;resizable=0;points=[];autosize=1;strokeColor=none;fillColor=none;" vertex="1" parent="V8NqZizXuEBdgUwYtA9P-17">
          <mxGeometry y="64" width="190" height="30" as="geometry" />
        </mxCell>
        <mxCell id="V8NqZizXuEBdgUwYtA9P-18" value="+ getMaximumLuggageWeight()" style="text;strokeColor=none;fillColor=none;align=left;verticalAlign=top;spacingLeft=4;spacingRight=4;overflow=hidden;rotatable=0;points=[[0,0.5],[1,0.5]];portConstraint=eastwest;whiteSpace=wrap;html=1;" vertex="1" parent="V8NqZizXuEBdgUwYtA9P-17">
          <mxGeometry y="94" width="190" height="26" as="geometry" />
        </mxCell>
        <mxCell id="V8NqZizXuEBdgUwYtA9P-21" value="EconomiClass" style="swimlane;fontStyle=1;align=center;verticalAlign=top;childLayout=stackLayout;horizontal=1;startSize=26;horizontalStack=0;resizeParent=1;resizeParentMax=0;resizeLast=0;collapsible=1;marginBottom=0;whiteSpace=wrap;html=1;" vertex="1" parent="1">
          <mxGeometry x="290" y="570" width="200" height="120" as="geometry" />
        </mxCell>
        <mxCell id="V8NqZizXuEBdgUwYtA9P-48" value="&amp;nbsp;" style="text;html=1;align=center;verticalAlign=middle;resizable=0;points=[];autosize=1;strokeColor=none;fillColor=none;" vertex="1" parent="V8NqZizXuEBdgUwYtA9P-21">
          <mxGeometry y="26" width="200" height="30" as="geometry" />
        </mxCell>
        <mxCell id="V8NqZizXuEBdgUwYtA9P-23" value="" style="line;strokeWidth=1;fillColor=none;align=left;verticalAlign=middle;spacingTop=-1;spacingLeft=3;spacingRight=3;rotatable=0;labelPosition=right;points=[];portConstraint=eastwest;strokeColor=inherit;" vertex="1" parent="V8NqZizXuEBdgUwYtA9P-21">
          <mxGeometry y="56" width="200" height="8" as="geometry" />
        </mxCell>
        <mxCell id="V8NqZizXuEBdgUwYtA9P-26" value="&amp;nbsp;+ getPassengers()&amp;nbsp;" style="text;html=1;align=left;verticalAlign=middle;resizable=0;points=[];autosize=1;strokeColor=none;fillColor=none;" vertex="1" parent="V8NqZizXuEBdgUwYtA9P-21">
          <mxGeometry y="64" width="200" height="30" as="geometry" />
        </mxCell>
        <mxCell id="V8NqZizXuEBdgUwYtA9P-22" value="+ getMaximumLuggageWeight()" style="text;strokeColor=none;fillColor=none;align=left;verticalAlign=top;spacingLeft=4;spacingRight=4;overflow=hidden;rotatable=0;points=[[0,0.5],[1,0.5]];portConstraint=eastwest;whiteSpace=wrap;html=1;" vertex="1" parent="V8NqZizXuEBdgUwYtA9P-21">
          <mxGeometry y="94" width="200" height="26" as="geometry" />
        </mxCell>
        <mxCell id="V8NqZizXuEBdgUwYtA9P-32" value="Pilot" style="swimlane;fontStyle=1;align=center;verticalAlign=top;childLayout=stackLayout;horizontal=1;startSize=26;horizontalStack=0;resizeParent=1;resizeParentMax=0;resizeLast=0;collapsible=1;marginBottom=0;whiteSpace=wrap;html=1;" vertex="1" parent="1">
          <mxGeometry x="-400" y="570" width="200" height="120" as="geometry" />
        </mxCell>
        <mxCell id="V8NqZizXuEBdgUwYtA9P-45" value="&amp;nbsp;" style="text;html=1;align=center;verticalAlign=middle;resizable=0;points=[];autosize=1;strokeColor=none;fillColor=none;" vertex="1" parent="V8NqZizXuEBdgUwYtA9P-32">
          <mxGeometry y="26" width="200" height="30" as="geometry" />
        </mxCell>
        <mxCell id="V8NqZizXuEBdgUwYtA9P-34" value="" style="line;strokeWidth=1;fillColor=none;align=left;verticalAlign=middle;spacingTop=-1;spacingLeft=3;spacingRight=3;rotatable=0;labelPosition=right;points=[];portConstraint=eastwest;strokeColor=inherit;" vertex="1" parent="V8NqZizXuEBdgUwYtA9P-32">
          <mxGeometry y="56" width="200" height="8" as="geometry" />
        </mxCell>
        <mxCell id="V8NqZizXuEBdgUwYtA9P-33" value="+ getMaximumLuggageWeight()" style="text;strokeColor=none;fillColor=none;align=left;verticalAlign=top;spacingLeft=4;spacingRight=4;overflow=hidden;rotatable=0;points=[[0,0.5],[1,0.5]];portConstraint=eastwest;whiteSpace=wrap;html=1;" vertex="1" parent="V8NqZizXuEBdgUwYtA9P-32">
          <mxGeometry y="64" width="200" height="26" as="geometry" />
        </mxCell>
        <mxCell id="V8NqZizXuEBdgUwYtA9P-35" value="&amp;nbsp;+ getPassengers()&amp;nbsp;" style="text;html=1;align=left;verticalAlign=middle;resizable=0;points=[];autosize=1;strokeColor=none;fillColor=none;" vertex="1" parent="V8NqZizXuEBdgUwYtA9P-32">
          <mxGeometry y="90" width="200" height="30" as="geometry" />
        </mxCell>
        <mxCell id="V8NqZizXuEBdgUwYtA9P-36" value="FlightAttendant" style="swimlane;fontStyle=1;align=center;verticalAlign=top;childLayout=stackLayout;horizontal=1;startSize=26;horizontalStack=0;resizeParent=1;resizeParentMax=0;resizeLast=0;collapsible=1;marginBottom=0;whiteSpace=wrap;html=1;" vertex="1" parent="1">
          <mxGeometry x="-400" y="390" width="200" height="120" as="geometry" />
        </mxCell>
        <mxCell id="V8NqZizXuEBdgUwYtA9P-44" value="&amp;nbsp;" style="text;html=1;align=center;verticalAlign=middle;resizable=0;points=[];autosize=1;strokeColor=none;fillColor=none;" vertex="1" parent="V8NqZizXuEBdgUwYtA9P-36">
          <mxGeometry y="26" width="200" height="30" as="geometry" />
        </mxCell>
        <mxCell id="V8NqZizXuEBdgUwYtA9P-38" value="" style="line;strokeWidth=1;fillColor=none;align=left;verticalAlign=middle;spacingTop=-1;spacingLeft=3;spacingRight=3;rotatable=0;labelPosition=right;points=[];portConstraint=eastwest;strokeColor=inherit;" vertex="1" parent="V8NqZizXuEBdgUwYtA9P-36">
          <mxGeometry y="56" width="200" height="8" as="geometry" />
        </mxCell>
        <mxCell id="V8NqZizXuEBdgUwYtA9P-39" value="&amp;nbsp;+ getPassengers()&amp;nbsp;" style="text;html=1;align=left;verticalAlign=middle;resizable=0;points=[];autosize=1;strokeColor=none;fillColor=none;" vertex="1" parent="V8NqZizXuEBdgUwYtA9P-36">
          <mxGeometry y="64" width="200" height="30" as="geometry" />
        </mxCell>
        <mxCell id="V8NqZizXuEBdgUwYtA9P-37" value="+ getMaximumLuggageWeight()" style="text;strokeColor=none;fillColor=none;align=left;verticalAlign=top;spacingLeft=4;spacingRight=4;overflow=hidden;rotatable=0;points=[[0,0.5],[1,0.5]];portConstraint=eastwest;whiteSpace=wrap;html=1;" vertex="1" parent="V8NqZizXuEBdgUwYtA9P-36">
          <mxGeometry y="94" width="200" height="26" as="geometry" />
        </mxCell>
        <mxCell id="V8NqZizXuEBdgUwYtA9P-53" value="" style="endArrow=block;endSize=16;endFill=0;html=1;rounded=0;" edge="1" parent="1" source="V8NqZizXuEBdgUwYtA9P-36" target="V8NqZizXuEBdgUwYtA9P-5">
          <mxGeometry width="160" relative="1" as="geometry">
            <mxPoint x="-530" y="370" as="sourcePoint" />
            <mxPoint x="-370" y="370" as="targetPoint" />
          </mxGeometry>
        </mxCell>
        <mxCell id="V8NqZizXuEBdgUwYtA9P-54" value="" style="endArrow=block;endSize=16;endFill=0;html=1;rounded=0;" edge="1" parent="1" source="V8NqZizXuEBdgUwYtA9P-32" target="V8NqZizXuEBdgUwYtA9P-5">
          <mxGeometry width="160" relative="1" as="geometry">
            <mxPoint x="-400" y="750" as="sourcePoint" />
            <mxPoint x="-240" y="750" as="targetPoint" />
          </mxGeometry>
        </mxCell>
        <mxCell id="V8NqZizXuEBdgUwYtA9P-55" value="" style="endArrow=block;endSize=16;endFill=0;html=1;rounded=0;" edge="1" parent="1" source="V8NqZizXuEBdgUwYtA9P-13" target="V8NqZizXuEBdgUwYtA9P-5">
          <mxGeometry width="160" relative="1" as="geometry">
            <mxPoint x="-390" y="760" as="sourcePoint" />
            <mxPoint x="-230" y="760" as="targetPoint" />
          </mxGeometry>
        </mxCell>
        <mxCell id="V8NqZizXuEBdgUwYtA9P-56" value="" style="endArrow=block;endSize=16;endFill=0;html=1;rounded=0;exitX=0.453;exitY=-0.008;exitDx=0;exitDy=0;exitPerimeter=0;" edge="1" parent="1" source="V8NqZizXuEBdgUwYtA9P-17" target="V8NqZizXuEBdgUwYtA9P-5">
          <mxGeometry width="160" relative="1" as="geometry">
            <mxPoint x="-380" y="770" as="sourcePoint" />
            <mxPoint x="-220" y="770" as="targetPoint" />
          </mxGeometry>
        </mxCell>
        <mxCell id="V8NqZizXuEBdgUwYtA9P-57" value="" style="endArrow=block;endSize=16;endFill=0;html=1;rounded=0;" edge="1" parent="1" source="V8NqZizXuEBdgUwYtA9P-21" target="V8NqZizXuEBdgUwYtA9P-5">
          <mxGeometry width="160" relative="1" as="geometry">
            <mxPoint x="-370" y="780" as="sourcePoint" />
            <mxPoint x="-210" y="780" as="targetPoint" />
          </mxGeometry>
        </mxCell>
        <mxCell id="V8NqZizXuEBdgUwYtA9P-58" value="" style="endArrow=block;endSize=16;endFill=0;html=1;rounded=0;" edge="1" parent="1" source="V8NqZizXuEBdgUwYtA9P-9" target="V8NqZizXuEBdgUwYtA9P-5">
          <mxGeometry width="160" relative="1" as="geometry">
            <mxPoint x="-360" y="790" as="sourcePoint" />
            <mxPoint x="-200" y="790" as="targetPoint" />
          </mxGeometry>
        </mxCell>
        <mxCell id="V8NqZizXuEBdgUwYtA9P-67" style="edgeStyle=orthogonalEdgeStyle;rounded=0;orthogonalLoop=1;jettySize=auto;html=1;" edge="1" parent="1" source="V8NqZizXuEBdgUwYtA9P-61" target="V8NqZizXuEBdgUwYtA9P-5">
          <mxGeometry relative="1" as="geometry" />
        </mxCell>
        <mxCell id="V8NqZizXuEBdgUwYtA9P-61" value="Client" style="html=1;whiteSpace=wrap;" vertex="1" parent="1">
          <mxGeometry x="-280" y="192" width="110" height="50" as="geometry" />
        </mxCell>
        <mxCell id="V8NqZizXuEBdgUwYtA9P-62" value="" style="endArrow=open;html=1;endSize=12;startArrow=diamondThin;startSize=14;startFill=0;edgeStyle=orthogonalEdgeStyle;rounded=0;" edge="1" parent="1" source="V8NqZizXuEBdgUwYtA9P-9" target="V8NqZizXuEBdgUwYtA9P-5">
          <mxGeometry relative="1" as="geometry">
            <mxPoint x="570" y="710" as="sourcePoint" />
            <mxPoint x="730" y="710" as="targetPoint" />
            <Array as="points">
              <mxPoint x="650" y="217" />
            </Array>
          </mxGeometry>
        </mxCell>
      </root>
    </mxGraphModel>
  </diagram>
</mxfile>
